<?xml version="1.0" encoding="UTF-8"?>
<svg id="Capa_2" data-name="Capa 2" xmlns="http://www.w3.org/2000/svg" viewBox="0 0 185.09 63.57">
  <defs>
    <style>
      .cls-1 {
        fill: #c7c7c6;
      }

      .cls-2 {
        fill: #cabaa0;
      }

      .cls-3 {
        fill: #fff;
      }

      .cls-4 {
        fill: #1e1e1c;
      }
    </style>
  </defs>
  <g id="Capa_1-2" data-name="Capa 1">
    <g>
      <g>
        <path class="cls-4" d="M105.22,16.61h6.8v.43h-6.33v4.15h5.72v.43h-5.72v4.22h6.4v.43h-6.87v-9.65Z"/>
        <path class="cls-4" d="M115.99,16.61h.51l4.03,9.13,4.02-9.13h.48l-4.33,9.72h-.39l-4.33-9.72Z"/>
        <path class="cls-4" d="M129.5,16.61h6.8v.43h-6.33v4.15h5.72v.43h-5.72v4.22h6.4v.43h-6.87v-9.65Z"/>
        <path class="cls-4" d="M141.15,16.61h.43l7.06,8.85v-8.85h.45v9.65h-.37l-7.11-8.92v8.92h-.46v-9.65Z"/>
        <path class="cls-4" d="M156.96,17.04h-3.43v-.43h7.35v.43h-3.45v9.22h-.47v-9.22Z"/>
        <path class="cls-4" d="M164.12,21.45v-.03c0-2.63,1.9-4.98,4.82-4.98s4.81,2.34,4.81,4.98c.01,0,.01.01,0,.03,0,2.63-1.9,4.98-4.83,4.98s-4.81-2.34-4.81-4.98ZM173.27,21.47v-.03c0-2.44-1.78-4.56-4.34-4.56s-4.33,2.1-4.33,4.54v.03c0,2.44,1.78,4.56,4.36,4.56s4.31-2.1,4.31-4.54Z"/>
        <path class="cls-4" d="M177.99,24.86l.32-.35c1.02.96,2.15,1.46,3.56,1.46,1.67,0,2.76-.91,2.76-2.12v-.03c0-1.13-.65-1.74-2.98-2.22-2.36-.47-3.28-1.21-3.28-2.61v-.03c0-1.38,1.31-2.5,3.13-2.5,1.32,0,2.37.41,3.28,1.13l-.29.37c-.88-.7-1.89-1.07-3.02-1.07-1.58,0-2.63.95-2.63,2.03v.03c0,1.12.65,1.74,2.99,2.22,2.4.48,3.27,1.25,3.27,2.61v.03c0,1.49-1.28,2.59-3.25,2.59-1.5,0-2.76-.54-3.85-1.54Z"/>
        <path class="cls-4" d="M105.21,28.56h3.45c2.26,0,3.65,1.09,3.65,2.92v.03c0,1.93-1.56,2.99-3.76,2.99h-2.87v3.71h-.47v-9.65ZM108.56,34.06c2,0,3.28-.94,3.28-2.54v-.03c0-1.59-1.24-2.51-3.23-2.51h-2.94v5.07h2.88Z"/>
        <path class="cls-4" d="M116.92,28.56h3.99c1.22,0,2.16.34,2.76.92.44.46.7,1.08.7,1.79v.03c0,1.63-1.26,2.58-3.03,2.73l3.21,4.18h-.59l-3.14-4.12h-3.42v4.12h-.47v-9.65ZM120.78,33.66c1.98,0,3.11-.96,3.11-2.33v-.03c0-1.45-1.12-2.32-3.02-2.32h-3.49v4.67h3.39Z"/>
        <path class="cls-4" d="M129.48,28.56h.47v9.65h-.47v-9.65Z"/>
        <path class="cls-4" d="M135.39,28.56h.44l4.08,5.87,4.07-5.87h.44v9.65h-.47v-8.84l-4.04,5.79h-.03l-4.04-5.79v8.84h-.46v-9.65Z"/>
        <path class="cls-4" d="M149.77,28.56h6.8v.43h-6.33v4.15h5.72v.43h-5.72v4.22h6.4v.43h-6.87v-9.65Z"/>
      </g>
      <path class="cls-2" d="M63.58,31.79c0,3.29-.5,6.42-1.44,9.42,0,.02,0,.04,0,.05-.17.54-.35,1.08-.55,1.62t0,.02s0,.02,0,.02c-.62,1.67-1.38,3.23-2.26,4.75-.18.31-.36.62-.55.92h0c-1.04,1.67-2.21,3.22-3.53,4.65-.21.23-.42.45-.63.67-1.01,1.04-2.09,2.02-3.24,2.91-.26.2-.51.4-.78.59-.77.57-1.56,1.1-2.37,1.6-.24.13-.48.27-.72.41-.93.53-1.87,1.01-2.86,1.45-.19.09-.38.17-.58.25-.6.26-1.2.48-1.82.7-.21.08-.42.14-.62.21-1.05.35-2.13.63-3.23.87-.27.06-.56.11-.84.17-1.2.22-2.44.37-3.69.45-.34.02-.68.04-1.02.05-.36,0-.71.02-1.07.02-1.34,0-2.66-.09-3.96-.25-.33-.04-.67-.09-1-.14-2.4-.37-4.72-1.02-6.92-1.91-.37-.14-.73-.29-1.09-.45-3.7-1.66-7.03-3.99-9.82-6.87-1.1-1.12-2.1-2.32-3.02-3.6C2.5,45.52.34,39.66.04,33.32c-.02-.35-.03-.69-.03-1.04,0-.16,0-.33,0-.49C0,22.32,4.13,13.82,10.7,8c1.35-1.2,2.8-2.29,4.35-3.25C19.91,1.74,25.65,0,31.79,0c10.97,0,20.65,5.55,26.36,14.01,0,0,0,.02,0,.02.32.48.63.97.94,1.47,1.05,1.75,1.94,3.62,2.63,5.58.27.75.51,1.46.73,2.23v.06c.74,2.68,1.13,5.51,1.13,8.42Z"/>
      <g>
        <path class="cls-4" d="M105.09,41.89l-.98.39-.08-.2,1.12-.47h.19v5.25h-.25v-4.98Z"/>
        <path class="cls-4" d="M108.14,46.31l.16-.19c.41.39.88.61,1.38.61,1.12,0,1.81-1.12,1.82-2.6v-.02c0-.13,0-.34,0-.47-.16.69-.82,1.27-1.68,1.27-1.04,0-1.81-.68-1.81-1.62v-.02c0-.95.78-1.71,1.81-1.71.56,0,1,.22,1.31.53.4.4.63,1.02.63,2.02v.02c0,1.63-.82,2.83-2.08,2.83-.59,0-1.13-.27-1.54-.65ZM111.36,43.26v-.02c0-.81-.69-1.46-1.57-1.46s-1.53.69-1.53,1.48v.02c0,.82.66,1.39,1.57,1.39s1.54-.66,1.54-1.41Z"/>
        <path class="cls-4" d="M114.11,44.26v-.02c0-1.42.8-2.69,2.15-2.69s2.15,1.25,2.15,2.69v.02c0,1.42-.81,2.69-2.15,2.69s-2.15-1.25-2.15-2.69ZM118.14,44.27v-.02c0-1.28-.71-2.47-1.89-2.47s-1.88,1.16-1.88,2.45v.02c0,1.28.71,2.47,1.89,2.47s1.88-1.17,1.88-2.45Z"/>
        <path class="cls-4" d="M120.5,46.69l2.2-2.08c.83-.78,1.02-1.21,1.02-1.66,0-.65-.56-1.16-1.3-1.16s-1.22.41-1.59,1.02l-.2-.13c.39-.66.93-1.12,1.8-1.12s1.54.6,1.54,1.36v.02c0,.56-.24,1-1.12,1.83l-1.95,1.85h3.14v.24h-3.55v-.17Z"/>
        <path class="cls-4" d="M129.76,46.1l.17-.19c.55.52,1.16.79,1.92.79.9,0,1.49-.49,1.49-1.15h0c0-.63-.35-.95-1.61-1.21-1.28-.25-1.77-.66-1.77-1.41h0c0-.76.71-1.36,1.69-1.36.72,0,1.28.22,1.78.61l-.16.2c-.48-.38-1.02-.58-1.63-.58-.86,0-1.42.51-1.42,1.1v.02c0,.6.35.94,1.62,1.2,1.3.26,1.77.68,1.77,1.41v.02c0,.8-.69,1.4-1.76,1.4-.81,0-1.49-.29-2.08-.83Z"/>
        <path class="cls-4" d="M135.98,46.38h.36v.48h-.36v-.48Z"/>
        <path class="cls-4" d="M140.99,41.61h.24l2.48,5.25h-.28l-.71-1.52h-3.23l-.72,1.52h-.26l2.47-5.25ZM142.61,45.11l-1.51-3.2-1.5,3.2h3Z"/>
        <path class="cls-4" d="M149.63,41.65h1.7c1.64,0,2.77,1.13,2.77,2.6v.02c0,1.47-1.13,2.6-2.77,2.6h-1.7v-5.22ZM151.33,46.63c1.5,0,2.5-1.04,2.5-2.36v-.02c0-1.32-1-2.38-2.51-2.38h-1.45v4.76h1.45Z"/>
        <path class="cls-4" d="M156.78,41.65h3.67v.23h-3.42v2.24h3.09v.23h-3.09v2.28h3.46v.23h-3.71v-5.22Z"/>
        <path class="cls-4" d="M166.35,44.27v-.02c0-1.47,1.09-2.7,2.58-2.7.97,0,1.5.36,2,.83l-.18.19c-.43-.42-.96-.78-1.83-.78-1.33,0-2.31,1.11-2.31,2.46v.02c0,1.35,1,2.46,2.32,2.46.81,0,1.39-.36,1.85-.83l.18.17c-.49.5-1.13.89-2.05.89-1.48,0-2.56-1.2-2.56-2.68Z"/>
        <path class="cls-4" d="M173.14,46.38h.36v.48h-.36v-.48Z"/>
        <path class="cls-4" d="M174.92,41.65h.28l2.18,4.93,2.18-4.93h.26l-2.34,5.25h-.21l-2.34-5.25Z"/>
        <path class="cls-4" d="M181.25,46.38h.36v.48h-.36v-.48Z"/>
      </g>
      <g>
        <path class="cls-3" d="M55.26,53.23c-.21.23-.42.45-.63.67-.83-5.11-.76-10.76-.68-16.23.14-11.71.29-23.81-7.86-30.71-2.75-2.33-3.57-3.03-4.49-3.03-.37,0-.8.11-1.41.26l-.13.04c-1,.24-2.38.57-4.66.79-1.73.15-2.98.2-3.97.23q-3.19.11-7.92,4.4l-.08.07c-1.42,1.29-3.42,2.21-5.53,3.2-3.07,1.42-6.19,2.87-7.27,5.37-1.5,3.47-.11,13.56.8,17.89,1.05,5.1,4.33,9.83,7.23,14l.66.95c1,1.45,2.07,2.95,3.17,4.47l.1.14c1.77,2.46,3.59,5,5.25,7.59-.33-.04-.67-.09-1-.14-1.52-2.35-3.18-4.66-4.79-6.9l-.83-1.16c-.85-1.17-1.7-2.37-2.53-3.56l-.62-.9c-2.96-4.27-6.3-9.07-7.39-14.33-.93-4.41-2.34-14.7-.77-18.36,1.19-2.73,4.42-4.25,7.55-5.71,2.13-.99,4.1-1.9,5.44-3.12l.08-.07c4.84-4.39,4.93-4.48,8.39-4.58h.25c.94-.05,2.1-.09,3.69-.25,2.23-.21,3.58-.54,4.56-.78l.08-.02c2.38-.59,2.57-.5,6.61,2.91,8.44,7.14,8.28,19.43,8.13,31.29v.14c-.06,5.2-.13,10.56.57,15.41Z"/>
        <path class="cls-3" d="M48.24,59c-.24.13-.48.27-.72.41-2.71-8.68-2.2-17.85-1.43-24.92.64-5.81-.37-10.38-2.91-13.22-1.78-1.98-4.2-3.02-6.99-3.02-5.41,0-12.17,4.22-14.62,12.29-2.3,7.58,3.26,14.6,9.7,22.73,2.42,3.07,4.93,6.23,7.15,9.61-.27.06-.56.11-.84.17-2.21-3.34-4.71-6.48-6.94-9.29-6.58-8.31-12.25-15.47-9.84-23.45,2.56-8.45,9.68-12.86,15.38-12.86,3.04,0,5.66,1.14,7.58,3.28,2.71,3,3.78,7.79,3.12,13.83-.7,6.41-1.3,15.8,1.35,24.43Z"/>
        <path class="cls-3" d="M42.29,34.06c.5-4.62-.2-8.25-1.98-10.24-1.03-1.15-2.42-1.74-4.13-1.74-4,0-9.05,3.29-10.95,9.58-1.71,5.65,3.27,11.94,9.04,19.23,2.57,3.26,5.48,6.94,8,10.92-.21.08-.42.14-.62.21-2.45-3.85-5.26-7.41-7.77-10.59l-.11-.14c-5.88-7.42-10.95-13.83-9.14-19.81,2-6.58,7.32-10.02,11.56-10.02,1.89,0,3.44.65,4.61,1.95,1.89,2.13,2.65,5.94,2.13,10.74-.77,6.91-1.38,17.1,1.74,26.72-.19.09-.38.17-.58.25-3.19-9.74-2.56-20.06-1.8-27.04Z"/>
        <path class="cls-3" d="M37.91,25.98c-.27-.32-.71-.68-1.73-.68-3.08,0-6.48,3.12-7.6,5.91-.74,1.88-.19,5.04,1.47,8.45,1.55,3.23,3.65,5.71,5.23,6.19.25.07.5.1.75.1.3,0,.57-.05.82-.14,2.11-.73,2.06-2.06,1.97-4.73-.06-1.59-.13-3.78.2-6.81.47-4.32-.25-7.33-1.12-8.31ZM38.08,41.12c.1,2.63.12,3.43-1.47,3.99-.35.13-.71.13-1.11.01-1.36-.4-3.32-2.78-4.77-5.79-1.57-3.25-2.11-6.18-1.45-7.84,1.01-2.57,4.09-5.43,6.9-5.43.72,0,.99.22,1.18.42.76.85,1.34,3.84.92,7.73-.34,3.17-.25,5.51-.19,6.91Z"/>
        <path class="cls-3" d="M19.92,61.27c-.37-.14-.73-.29-1.09-.45-6.23-9.23-12.02-17.99-14.47-26.83-1.36-4.92-1.54-9.39-.54-13.63,1.04-4.38,3.29-8.43,6.88-12.35,1.35-1.2,2.8-2.29,4.35-3.25-1.03.84-2.02,1.75-2.96,2.71-7.66,7.83-9.93,16.21-7.11,26.35,2.49,9.02,8.53,17.98,14.93,27.46Z"/>
        <path class="cls-3" d="M59.32,28.46c-.28,6.16-.6,13.06.02,19.21-.18.31-.36.62-.55.92-.76-6.45-.41-13.71-.11-20.15.09-1.92.19-3.95.25-5.9.09-3.04-.16-5.89-.76-8.5.32.48.63.97.94,1.47.38,2.2.53,4.56.46,7.04-.07,1.97-.16,4.01-.25,5.92Z"/>
        <path class="cls-3" d="M9.01,53.95c-1.1-1.12-2.1-2.32-3.02-3.6-1.02-1.79-1.85-3.47-2.49-5.09-.14-.35-.32-1.18-.61-2.52l-.02-.11c-.55-2.55-1.59-7.34-2.84-9.31-.02-.35-.03-.69-.03-1.04,1.49,1.45,2.55,5.82,3.5,10.26l.02.09c.25,1.17.45,2.09.57,2.4,1.09,2.73,2.7,5.67,4.91,8.92Z"/>
        <path class="cls-3" d="M62.22,35.42c-.13,2-.15,3.95-.08,5.8,0,.02,0,.04,0,.05-.17.54-.35,1.08-.55,1.62-.18-2.32-.19-4.84-.03-7.5.31-5.07.37-9.86.16-14.3.27.75.51,1.46.73,2.23v.06c.09,3.79,0,7.82-.24,12.04Z"/>
        <path class="cls-3" d="M51.5,28.74c-1.16,9.51-1.97,19.46-.11,28.08-.26.2-.51.4-.78.59-1.97-8.81-1.15-19.02.03-28.77.72-5.93-.38-10.73-3.16-13.87-2.34-2.64-5.89-4.1-10.01-4.1-7.68,0-17.49,5.27-20.51,15.05-3.48,11.23,3.72,20.5,11.34,30.33,2.04,2.63,3.89,5.03,5.58,7.47-.34.02-.68.04-1.02.05-1.64-2.31-3.41-4.6-5.13-6.82l-.11-.16c-7.43-9.57-15.1-19.45-11.49-31.11,3.16-10.18,13.35-15.67,21.34-15.67,4.35,0,8.14,1.55,10.65,4.39,2.96,3.33,4.13,8.36,3.38,14.55Z"/>
      </g>
      <g>
        <path class="cls-3" d="M28.36,54.14c.79-.53,1.35-1.22,1.69-2.08.07-.3.18-.79.31-1.46.13-.68.2-1.84.2-3.49v-30.59c0-1.09-.04-2-.11-2.73-.07-.73-.18-1.34-.31-1.83-.13-.49-.27-.86-.42-1.13-.15-.26-.28-.47-.39-.62-.11-.08-.23-.18-.34-.31-.11-.13-.23-.23-.34-.31h28.95l.23,4.17c-.08-.19-.15-.35-.23-.48-.07-.13-.15-.25-.22-.37-.49-.79-1-1.38-1.52-1.77-.53-.39-1.09-.67-1.69-.82-.6-.15-1.23-.22-1.89-.22h-17.6v20.5h12.87c.58,0,1.16-.04,1.75-.11.58-.07,1.15-.2,1.69-.39.54-.19,1.02-.47,1.44-.85.3-.22.54-.47.73-.73s.38-.54.57-.85v6.31c-.57-1.05-1.41-1.82-2.54-2.31-.9-.45-1.76-.67-2.56-.65s-1.72.03-2.73.03h-11.21v22.59h16.62c1.09,0,2.03-.1,2.82-.31.79-.21,1.5-.52,2.14-.93.64-.41,1.24-.92,1.8-1.52.56-.6,1.14-1.3,1.75-2.08l-1.92,5.35h-29.52Z"/>
        <path class="cls-1" d="M61.26,54.14c.23-.19.44-.38.65-.56s.4-.43.59-.73c.22-.34.42-.9.59-1.69.17-.79.25-2.16.25-4.11v-30.36c0-1.69-.09-3.04-.28-4.06-.19-1.01-.49-1.78-.9-2.31-.15-.11-.28-.23-.4-.37-.11-.13-.26-.25-.45-.37h13.69c1.8,0,3.61.24,5.41.7,1.8.47,3.41,1.19,4.82,2.17,1.41.98,2.55,2.21,3.44,3.69.88,1.48,1.32,3.24,1.32,5.27s-.33,3.66-.99,5.13c-.66,1.46-1.56,2.68-2.7,3.66-1.15.98-2.51,1.71-4.08,2.2-1.58.49-3.31.73-5.18.73h-9.46v13.91c0,3.34.43,5.46,1.29,6.37.26.34.54.58.85.73h-8.45ZM77.03,32.68c1.2,0,2.27-.37,3.21-1.1.94-.73,1.73-1.63,2.37-2.7.64-1.07,1.13-2.23,1.46-3.46.34-1.24.51-2.35.51-3.32,0-1.35-.22-2.73-.65-4.14-.43-1.41-1.06-2.7-1.89-3.89-.83-1.18-1.83-2.15-3.01-2.9-1.18-.75-2.53-1.13-4.03-1.13h-7.44v22.64h9.46Z"/>
      </g>
    </g>
  </g>
</svg>